<svg width="48" height="48" viewBox="0 0 28 28" fill="none" xmlns="http://www.w3.org/2000/svg"><path d="m26.768 11.032-9.8-9.8a4.312 4.312 0 0 0-5.936 0l-9.8 9.8a4.2 4.2 0 0 0 0 5.936l9.8 9.8a4.2 4.2 0 0 0 5.936 0l9.8-9.8a4.2 4.2 0 0 0 0-5.936Zm-1.974 3.962-9.8 9.8a1.401 1.401 0 0 1-1.988 0l-9.8-9.8a1.4 1.4 0 0 1 0-1.988l9.8-9.8a1.4 1.4 0 0 1 1.988 0l9.8 9.8a1.4 1.4 0 0 1 0 1.988Zm-7.7-4.788a1.406 1.406 0 0 0-1.988 1.988l.42.406H10.5A1.4 1.4 0 0 0 9.1 14v2.8a1.4 1.4 0 0 0 2.8 0v-1.4h3.626l-.42.406a1.4 1.4 0 0 0 0 1.988 1.4 1.4 0 0 0 1.988 0l2.8-2.8a1.399 1.399 0 0 0 0-1.988l-2.8-2.8Z" fill="#fff"/></svg>