<svg width="515" height="147" fill="none" xmlns="http://www.w3.org/2000/svg"><g clip-path="url(#a)"><path d="M147.07 73.506a73.43 73.43 0 0 1-2.541 19.223c-3.123 11.586-9.034 22.044-16.974 30.615-13.411 14.55-32.661 23.65-54.029 23.65-21.368 0-41.007-9.312-54.434-24.108h-.018C7.217 109.835 0 92.517 0 73.506c0-4.321.37-8.571 1.094-12.698 4.94-28.394 26.203-51.197 53.764-58.41A73.198 73.198 0 0 1 73.526 0c18.968 0 36.243 7.16 49.282 18.958 14.91 13.439 24.262 32.909 24.262 54.548Z" fill="#FCFCFC"/><path d="M147.07 73.506a73.43 73.43 0 0 1-2.541 19.223c-12.087 2.416-24.209 2.328-36.401.3-6.829-9.506-14.063-18.712-22.303-27.054-5.012-5.079-2.612-11.286-3.335-17.036 2.946-.158 5.928.265 8.557-1.957 7.288-6.19 15.122-11.781 21.933-18.412a13.82 13.82 0 0 1 1.323-1.111c1.165-.847 2.471-1.587 3.706-2.416.247-.159.494-.318.741-.494.988-.67 1.905-1.428 2.611-2.346a7.599 7.599 0 0 0 1.218-2.31c.106-.3.194-.6.229-.935 14.91 13.439 24.262 32.909 24.262 54.548Z" fill="#4AD2C3"/><path d="M45.753 124.649c-9.07 3.81-18.756 3.016-26.661-1.763h-.018C7.217 109.835 0 92.517 0 73.506c0-4.321.37-8.571 1.094-12.698 5.558-.159 11.028-.035 16.392.547.318.035.653.07 1.006.106 1.2.14 2.4.3 3.6.511 1.2.212 2.381.423 3.564.67.988.212 1.976.441 2.964.688l.035.018c.988.264 1.959.529 2.93.829a58.64 58.64 0 0 1 10.533 4.39c1.676.9 3.335 1.905 4.976 2.999 0 0 0 .017.018.017.9.6 1.764 1.235 2.646 1.905.865.67 1.747 1.376 2.594 2.116-3.052 4.11-6.246 8.095-9.087 12.328-1.782 2.663-4.57 6.19-2.17 8.906 2.682 2.998 6.21 0 8.893-1.658 4.587-2.857 8.91-6.067 13.392-9.17 4.464 15.184-3.582 32.731-17.627 38.639Z" fill="#E9526A"/><path d="m63.857 62.995-11.505 12.61a56.753 56.753 0 0 0-2.593-2.117 52.456 52.456 0 0 0-2.647-1.904c-.018 0-.018-.018-.018-.018a61.055 61.055 0 0 0-4.976-2.998 58.643 58.643 0 0 0-10.534-4.391c-.97-.3-1.94-.565-2.929-.83l-.035-.017a89.771 89.771 0 0 0-2.964-.688 87.88 87.88 0 0 0-7.164-1.181c-.353-.036-.688-.071-1.006-.106-5.364-.582-10.834-.706-16.392-.547 4.94-28.394 26.203-51.197 53.764-58.41-1.059 3.986-1.87 7.937-2.365 11.852-.105.67-.176 1.34-.247 2.01-1.747 16.366 1.606 32.027 11.61 46.735Z" fill="#F4B832"/><path d="M122.808 18.958a4.004 4.004 0 0 1-.229.935c-.071.212-.141.441-.23.635-.176.423-.37.794-.617 1.164-.106.176-.247.353-.371.511-.706.918-1.623 1.676-2.611 2.346-.247.176-.494.335-.741.494-1.235.829-2.541 1.57-3.706 2.416-.476.353-.917.705-1.323 1.11-6.811 6.632-14.645 12.223-21.933 18.413-2.629 2.222-5.61 1.799-8.557 1.957-1.094-6.437-2.1-12.91-3.3-19.329-.653-3.51-1.43-8.535-5.17-8.5-4.376.035-5.152 5.344-5.734 9.03-1.694 10.916-2.982 21.885-4.43 32.855C53.853 48.287 50.5 32.626 52.247 16.26c.071-.67.142-1.34.247-2.01.494-3.915 1.306-7.866 2.365-11.852A73.199 73.199 0 0 1 73.526 0c18.968 0 36.243 7.16 49.282 18.958Z" fill="#53C2D9"/><path d="M144.529 92.729c-3.123 11.586-9.034 22.044-16.974 30.615a32.795 32.795 0 0 1-6.67 2.61c-18.616 5.132-35.237-7.742-37.901-28.605-.441-3.527-.053-7.142-.053-11.657 5.999 3.81 11.504 7.583 17.274 10.881 3.864 2.205 7.693 2.875 7.923-3.544 12.192 2.028 24.314 2.116 36.401-.3Z" fill="#F4B832"/><path d="M193.193 61.16c2.082 0 3.812-.67 5.206-2.01 1.376-1.34 2.082-3.015 2.082-4.99 0-1.976-.688-3.81-2.082-5.203-1.394-1.376-3.124-2.081-5.206-2.081h-9.228v-8.307c0-2.257-.706-4.126-2.135-5.643-1.429-1.517-3.264-2.275-5.523-2.275-2.258 0-4.129.758-5.646 2.275-1.518 1.517-2.276 3.404-2.276 5.643v8.307h-5.982c-2.082 0-3.811.67-5.205 2.01-1.394 1.34-2.082 3.016-2.082 4.991 0 1.975.688 3.81 2.082 5.203 1.376 1.393 3.123 2.08 5.205 2.08h5.982v35.837c0 4.25.653 7.583 1.941 9.999 1.305 2.416 2.929 4.215 4.87 5.397a16.288 16.288 0 0 0 6.228 2.204c2.206.3 4.217.459 6.035.459 3.035 0 5.876-.776 8.505-2.346 2.646-1.552 3.97-3.545 3.97-5.978 0-1.993-.494-3.545-1.5-4.674-.988-1.129-2.1-1.693-3.317-1.693-1.13 0-2.118.194-2.982.582-.865.388-1.818.582-2.859.582a7.025 7.025 0 0 1-2.664-.511c-.829-.353-1.465-.918-1.941-1.694-.476-.775-.723-1.78-.723-2.98V61.161h9.245ZM257.438 46.488c-1.782-1.464-3.97-2.205-6.564-2.205-2.17 0-4.34.265-6.493.776a23.182 23.182 0 0 0-6.105 2.399 22.21 22.21 0 0 0-5.135 4.02c-1.076 1.13-1.994 2.4-2.788 3.775v-1.764c0-2.257-.741-4.127-2.205-5.643-1.465-1.517-3.335-2.275-5.594-2.275-2.258 0-4.111.758-5.593 2.275-1.482 1.516-2.206 3.404-2.206 5.643v53.631c0 2.257.741 4.126 2.206 5.643 1.464 1.517 3.335 2.275 5.593 2.275 2.259 0 4.112-.758 5.594-2.275 1.464-1.517 2.205-3.404 2.205-5.643V76.345c0-3.121.406-5.82 1.236-8.112.829-2.293 1.905-4.215 3.246-5.785 1.341-1.552 2.806-2.698 4.411-3.439 1.606-.74 3.176-1.11 4.747-1.11 1.729 0 3.264.299 4.605.916 1.341.6 2.841.917 4.482.917 1.729 0 3.335-.635 4.799-1.887 1.465-1.252 2.206-3.315 2.206-6.172 0-1.993-.882-3.721-2.664-5.203l.017.018ZM321.418 54.477c-3.034-3.157-6.511-5.644-10.463-7.46-3.935-1.817-8.117-2.734-12.545-2.734-5.717 0-11.134 1.482-16.234 4.41-5.117 2.945-9.246 7.16-12.404 12.662-3.158 5.502-4.746 12.133-4.746 19.928 0 6.666 1.446 12.645 4.358 17.918 2.894 5.273 7.058 9.453 12.475 12.539 5.417 3.069 11.804 4.603 19.162 4.603a37.8 37.8 0 0 0 12.598-2.134c4.076-1.428 7.235-3.086 9.493-4.991 2.418-1.904 3.635-4.021 3.635-6.366 0-1.729-.635-3.245-1.888-4.55-1.253-1.305-2.841-1.94-4.746-1.94-1.394 0-2.859.388-4.411 1.164a51.033 51.033 0 0 0-3.177 1.887c-1.164.74-2.699 1.358-4.605 1.887-1.906.511-4.464.776-7.658.776-3.458 0-6.74-.847-9.81-2.54-3.07-1.693-5.594-4.162-7.535-7.407-1.129-1.887-1.905-4.056-2.364-6.42h42.842c2.082 0 3.899-.652 5.452-1.94 1.553-1.304 2.382-2.98 2.47-5.06 0-4.674-.882-9.083-2.664-13.245-1.782-4.162-4.182-7.813-7.217-10.97l-.018-.017Zm-36.119 8.641c1.641-1.64 3.6-2.804 5.841-3.51 2.258-.687 4.676-1.04 7.27-1.04 2.593 0 5.222.582 7.604 1.746 2.383 1.164 4.376 2.751 5.982 4.744 1.606 1.993 2.488 4.25 2.664 6.755v.917h-34.019c.212-1.058.459-2.081.759-2.98.953-2.77 2.258-4.974 3.899-6.632ZM397.68 45.712c-3.124-.177-5.417 1.481-6.882 4.938l-17.786 40.88-17.945-41.004c-.688-1.64-1.729-2.874-3.123-3.703-1.394-.829-2.894-1.235-4.552-1.235-2.347 0-4.2.759-5.594 2.275-1.394 1.517-2.082 3.051-2.082 4.603 0 .953.106 1.782.318 2.47.212.687.406 1.252.582 1.692l24.174 53.507c.776 1.817 1.923 3.157 3.44 4.021 1.518.864 3.088 1.164 4.747.917 3.035-.176 5.24-1.816 6.617-4.938l24.296-53.507c.265-.6.495-1.252.724-1.94a6.63 6.63 0 0 0 .318-1.94c0-1.992-.671-3.65-2.012-4.99-1.341-1.34-3.088-2.01-5.258-2.01l.018-.036ZM473.94 44.283c-2.258 0-4.111.759-5.593 2.275-1.464 1.517-2.206 3.404-2.206 5.644v.194a26.517 26.517 0 0 0-2.54-2.134c-2.294-1.728-4.994-3.157-8.117-4.286-3.123-1.128-6.546-1.693-10.269-1.693-5.805 0-11.081 1.535-15.845 4.603-4.765 3.069-8.558 7.32-11.364 12.733-2.823 5.415-4.217 11.675-4.217 18.765s1.412 13.227 4.217 18.64c2.806 5.415 6.652 9.647 11.505 12.734 4.852 3.068 10.269 4.603 16.233 4.603 3.3 0 6.352-.547 9.158-1.623 2.805-1.076 5.258-2.398 7.34-3.968 1.535-1.164 2.841-2.328 3.917-3.509.035 2.186.759 4.038 2.188 5.52 1.465 1.516 3.335 2.275 5.593 2.275 2.259 0 4.112-.759 5.594-2.275 1.464-1.517 2.205-3.404 2.205-5.644V52.202c0-2.346-.741-4.233-2.205-5.714-1.482-1.464-3.335-2.205-5.594-2.205Zm-9.545 47.14c-1.606 3.299-3.829 5.891-6.688 7.796-2.858 1.904-6.193 2.857-10.004 2.857-3.812 0-7.023-.953-9.882-2.857-2.858-1.905-5.081-4.497-6.687-7.795-1.606-3.298-2.4-6.966-2.4-11.04 0-4.074.794-7.883 2.4-11.164 1.606-3.298 3.829-5.89 6.687-7.795 2.859-1.904 6.141-2.857 9.882-2.857 3.74 0 7.146.953 10.004 2.857 2.859 1.905 5.082 4.497 6.688 7.795 1.605 3.298 2.399 7.02 2.399 11.164s-.811 7.742-2.399 11.04ZM512.988 99.148c-1.341-1.34-3.264-2.01-5.787-2.01h-1.694c-2.506 0-4.447.67-5.788 2.01-1.341 1.34-2.011 3.263-2.011 5.785v2.204c0 2.504.67 4.444 2.011 5.785 1.341 1.34 3.265 2.01 5.788 2.01h1.694c2.506 0 4.446-.67 5.787-2.01 1.341-1.341 2.012-3.263 2.012-5.785v-2.204c0-2.505-.671-4.445-2.012-5.785Z" fill="#323541"/></g><defs><clipPath id="a"><path fill="#fff" d="M0 0h515v146.994H0z"/></clipPath></defs></svg>