<svg width="48" height="48" viewBox="0 0 28 28" fill="none" xmlns="http://www.w3.org/2000/svg"><path d="M24.374 15.4c-.308 0-.63-.098-.938-.168a13.814 13.814 0 0 1-1.834-.546 2.8 2.8 0 0 0-3.472 1.4l-.308.644a18.44 18.44 0 0 1-3.738-2.8 18.44 18.44 0 0 1-2.8-3.738l.644-.294a2.8 2.8 0 0 0 1.4-3.472 14.67 14.67 0 0 1-.546-1.848c-.07-.308-.126-.63-.168-.938a4.2 4.2 0 0 0-4.2-3.486H4.2a4.2 4.2 0 0 0-3.136 1.4 4.2 4.2 0 0 0-1.022 3.36 26.698 26.698 0 0 0 7.574 15.4 26.698 26.698 0 0 0 15.4 7.574c.182.014.364.014.546 0a4.2 4.2 0 0 0 2.8-1.064 4.2 4.2 0 0 0 1.4-3.136v-4.2a4.2 4.2 0 0 0-3.388-4.088Zm.686 8.4a1.4 1.4 0 0 1-.462 1.036 1.4 1.4 0 0 1-1.148.35A24.024 24.024 0 0 1 9.632 18.41 24.024 24.024 0 0 1 2.8 4.55a1.4 1.4 0 0 1 .35-1.148A1.4 1.4 0 0 1 4.2 2.94h4.2a1.4 1.4 0 0 1 1.4 1.092c0 .378.126.77.21 1.148.162.733.377 1.454.644 2.156l-1.96.924a1.4 1.4 0 0 0-.728.784 1.4 1.4 0 0 0 0 1.064 20.286 20.286 0 0 0 9.8 9.8c.34.14.723.14 1.064 0a1.4 1.4 0 0 0 .784-.728l.882-1.96a17.375 17.375 0 0 0 3.346.854 1.4 1.4 0 0 1 1.092 1.4l.126 4.326ZM16.8 0h-.98a1.405 1.405 0 0 0 .238 2.8h.742a8.4 8.4 0 0 1 8.4 8.4v.742a1.4 1.4 0 0 0 1.274 1.512h.112a1.4 1.4 0 0 0 1.4-1.274v-.98A11.2 11.2 0 0 0 16.8 0Zm2.8 11.2a1.4 1.4 0 1 0 2.8 0 5.6 5.6 0 0 0-5.6-5.6 1.4 1.4 0 1 0 0 2.8 2.8 2.8 0 0 1 2.8 2.8Z" fill="#fff"/></svg>