<svg width="48" height="48" viewBox="0 0 48 48" fill="none" xmlns="http://www.w3.org/2000/svg">
<rect width="48" height="48" rx="24" fill="#F59E0B"/>
<g clip-path="url(#clip0_855_2045)">
<path d="M34.374 25.4C34.066 25.4 33.744 25.302 33.436 25.232C32.8128 25.0926 32.2 24.9102 31.602 24.686C30.9526 24.4497 30.2386 24.462 29.5977 24.7205C28.9567 24.9789 28.4339 25.4653 28.13 26.086L27.822 26.73C26.4624 25.9589 25.2063 25.018 24.084 23.93C22.996 22.8077 22.0551 21.5516 21.284 20.192L21.928 19.898C22.5487 19.5941 23.0351 19.0713 23.2936 18.4304C23.552 17.7894 23.5643 17.0755 23.328 16.426C23.1057 15.8226 22.9233 15.2053 22.782 14.578C22.712 14.27 22.656 13.948 22.614 13.64C22.444 12.6539 21.9275 11.7608 21.1575 11.1217C20.3875 10.4826 19.4146 10.1395 18.414 10.154H14.2C13.6082 10.1532 13.0228 10.2775 12.4824 10.5188C11.9419 10.7601 11.4586 11.1129 11.064 11.554C10.6613 12.0071 10.3614 12.5421 10.185 13.1221C10.0086 13.7021 9.95979 14.3134 10.042 14.914C10.803 20.741 13.4653 26.1541 17.616 30.314C21.7759 34.4647 27.189 37.127 33.016 37.888C33.1978 37.9019 33.3803 37.9019 33.562 37.888C34.5944 37.8895 35.5912 37.5107 36.362 36.824C36.8032 36.4294 37.1559 35.9461 37.3972 35.4056C37.6385 34.8652 37.7628 34.2799 37.762 33.688V29.488C37.7545 28.5207 37.4132 27.5856 36.7959 26.8407C36.1786 26.0959 35.3232 25.587 34.374 25.4ZM35.06 33.8C35.0596 33.9954 35.0182 34.1885 34.9387 34.3669C34.8591 34.5453 34.7431 34.7051 34.598 34.836C34.4446 34.9758 34.262 35.0797 34.0634 35.1403C33.8649 35.2008 33.6554 35.2164 33.45 35.186C28.2256 34.5037 23.3704 32.1228 19.632 28.41C15.8905 24.6685 13.4889 19.7963 12.8 14.55C12.7696 14.3447 12.7852 14.1351 12.8458 13.9366C12.9063 13.738 13.0102 13.5554 13.15 13.402C13.2825 13.2552 13.4446 13.1381 13.6255 13.0585C13.8065 12.9789 14.0023 12.9385 14.2 12.94H18.4C18.7237 12.9321 19.04 13.0366 19.2953 13.2357C19.5505 13.4348 19.7289 13.7162 19.8 14.032C19.8 14.41 19.926 14.802 20.01 15.18C20.1718 15.9134 20.3871 16.634 20.654 17.336L18.694 18.26C18.3571 18.4146 18.0953 18.6966 17.966 19.044C17.826 19.3848 17.826 19.7672 17.966 20.108C19.9809 24.4239 23.4502 27.8931 27.766 29.908C28.1069 30.048 28.4892 30.048 28.83 29.908C29.1774 29.7787 29.4594 29.5169 29.614 29.18L30.496 27.22C31.2183 27.4834 31.9573 27.6985 32.708 27.864C33.072 27.948 33.464 28.018 33.842 28.074C34.1578 28.1451 34.4392 28.3235 34.6383 28.5788C34.8375 28.834 34.9419 29.1504 34.934 29.474L35.06 33.8ZM26.8 10H25.82C25.4487 10.0316 25.1052 10.2093 24.8649 10.4942C24.6247 10.7791 24.5075 11.1477 24.539 11.519C24.5706 11.8903 24.7484 12.2339 25.0332 12.4741C25.3181 12.7143 25.6867 12.8316 26.058 12.8H26.8C29.0278 12.8 31.1644 13.685 32.7397 15.2603C34.315 16.8356 35.2 18.9722 35.2 21.2V21.942C35.169 22.3113 35.2857 22.6779 35.5245 22.9613C35.7633 23.2448 36.1048 23.4219 36.474 23.454H36.586C36.9365 23.4554 37.2748 23.3253 37.534 23.0895C37.7932 22.8536 37.9545 22.5291 37.986 22.18V21.2C37.986 18.232 36.808 15.3854 34.7106 13.2853C32.6132 11.1853 29.768 10.0037 26.8 10ZM29.6 21.2C29.6 21.5713 29.7475 21.9274 30.0101 22.1899C30.2726 22.4525 30.6287 22.6 31 22.6C31.3713 22.6 31.7274 22.4525 31.99 22.1899C32.2525 21.9274 32.4 21.5713 32.4 21.2C32.4 19.7148 31.81 18.2904 30.7598 17.2402C29.7096 16.19 28.2852 15.6 26.8 15.6C26.4287 15.6 26.0726 15.7475 25.8101 16.0101C25.5475 16.2726 25.4 16.6287 25.4 17C25.4 17.3713 25.5475 17.7274 25.8101 17.9899C26.0726 18.2525 26.4287 18.4 26.8 18.4C27.5426 18.4 28.2548 18.695 28.7799 19.2201C29.305 19.7452 29.6 20.4574 29.6 21.2Z" fill="white"/>
</g>
<defs>
<clipPath id="clip0_855_2045">
<rect width="33.6" height="33.6" fill="white" transform="translate(7.20001 7.20001)"/>
</clipPath>
</defs>
</svg>
