<svg width="221" height="326" fill="none" xmlns="http://www.w3.org/2000/svg"><path d="m155.355 318.951-.405.294.405-.294c-4.05-5.579-6.544-11.945-8.439-18.527-1.498-5.196-2.745-10.469-3.995-15.753a877.193 877.193 0 0 0-1.352-5.662c-.109-.45-.105-.941-.096-1.508v-.004c.002-.171.005-.35.003-.527l-.033-4.686c-.143-20.41-.287-40.818-.392-61.227-.004-.652-.085-1.235-.358-1.759-.276-.529-.719-.942-1.342-1.311v-.001c-25.106-14.836-50.202-29.685-75.298-44.534l-.084-.049c-20.762-12.285-41.525-24.57-62.292-36.848-.489-.288-.77-.545-.938-.828-.165-.277-.251-.634-.238-1.185v-.001c.112-4.748.175-9.497.238-14.244v-.002c.026-1.963.051-3.926.08-5.889.005-.222.026-.447.058-.768l-.498-.048.498.048v-.001l.003-.037 22.985 4.876 1.183.251c38.424 8.151 76.809 16.293 115.335 24.463l.543.115.058-.551c.128-1.202.254-2.368.378-3.511l.001-.006c.269-2.479.526-4.848.758-7.222.243-2.498.489-4.995.734-7.493l.008-.077c.842-8.57 1.684-17.141 2.458-25.72l-.498-.044.498.045c.498-5.526.957-11.055 1.415-16.582.486-5.857.972-11.712 1.504-17.563.128-1.414-.022-2.628-.524-3.722-.502-1.09-1.334-2.016-2.496-2.886-7.568-5.66-15.087-11.387-22.608-17.115l-.005-.004-.006-.005a5342.31 5342.31 0 0 0-13.705-10.415c-.481-.364-.786-.706-.973-1.078-.186-.37-.277-.81-.263-1.404l-.5-.012.5.012c.06-2.61.083-5.22.106-7.827.025-2.774.05-5.544.119-8.312.012-.514.029-.854.07-1.087a.725.725 0 0 1 .063-.217.855.855 0 0 1 .279.003c.252.03.593.107 1.09.221l.081.019c17.801 4.072 35.607 8.142 53.422 12.148h.001c1.141.255 2.42.077 3.491-.167l-.112-.488.112.488A11715 11715 0 0 0 218.799.658c.353-.082.624-.122.831-.122.207-.001.314.037.372.074.095.06.253.256.258 1.017.012 2.139.035 4.277.058 6.413v.01c.039 3.629.078 7.254.066 10.878v.002c0 .116-.075.321-.271.587-.185.25-.431.49-.653.66a9794.218 9794.218 0 0 1-38.74 29.598c-.522.396-.914.818-1.149 1.339-.236.522-.29 1.092-.226 1.74a20630.15 20630.15 0 0 1 3.51 36.096c.582 6.017 1.163 12.035 1.748 18.052l.497-.049-.497.049c.574 5.902 1.162 11.803 1.749 17.703l.002.013.675 6.786c.02.201.053.399.095.647v.003l.07.422.081.512.509-.1c.965-.19 1.923-.374 2.876-.558l.021-.004c1.943-.374 3.867-.744 5.786-1.149l24.033-5.076v63.031c-10.53 6.229-21.061 12.456-31.592 18.681h-.001c-.618.367-1.09.773-1.4 1.307-.31.534-.427 1.144-.43 1.86-.095 19.581-.233 39.162-.371 58.741l-.051 7.319-.002.263c-.004.644-.009 1.234-.13 1.782a765.86 765.86 0 0 0-.793 3.582c-.869 3.948-1.736 7.885-2.752 11.781l.484.126-.484-.126c-2.08 7.992-4.648 15.776-9.11 22.758-2.395 3.749-5.091 7.024-9.532 8.194h-.549c-3.761-.867-6.219-3.499-8.432-6.549ZM108.024.499l-.001.002.001-.002Z" stroke="#F59E0B"/></svg>