<svg width="221" height="326" fill="none" xmlns="http://www.w3.org/2000/svg"><path d="M154.95 319.245c2.239 3.086 4.803 5.859 8.78 6.755h.671c4.671-1.206 7.469-4.639 9.889-8.425 4.504-7.048 7.087-14.893 9.172-22.901 1.019-3.907 1.887-7.853 2.756-11.8.263-1.193.526-2.387.793-3.58.135-.609.138-1.255.142-1.888l.002-.261.051-7.32c.138-19.579.275-39.161.371-58.742.007-1.33.432-2.056 1.585-2.739 10.614-6.274 21.226-12.55 31.838-18.827v-63.932l-24.637 5.203c-1.913.404-3.832.773-5.776 1.147-.96.185-1.926.371-2.9.563a29.466 29.466 0 0 0-.07-.43c-.042-.252-.072-.432-.09-.614l-.676-6.786c-.588-5.905-1.176-11.809-1.751-17.715-.584-6.017-1.166-12.034-1.747-18.051a20697.247 20697.247 0 0 0-3.511-36.096c-.117-1.187.215-1.9 1.18-2.633a9750.777 9750.777 0 0 0 38.742-29.6c.51-.39 1.12-1.086 1.12-1.643.012-3.628-.027-7.257-.066-10.886-.023-2.14-.046-4.28-.058-6.42-.01-1.55-.604-1.796-2.075-1.453-17.459 4.07-34.935 8.085-52.415 12.074-1.052.24-2.241.397-3.27.167-17.815-4.006-35.619-8.075-53.42-12.147l-.081-.019c-1.943-.446-2.065-.474-2.114 1.555a524.393 524.393 0 0 0-.119 8.32c-.023 2.606-.046 5.213-.106 7.82-.03 1.303.396 2.106 1.434 2.892 4.578 3.463 9.144 6.94 13.71 10.418 7.522 5.73 15.045 11.459 22.617 17.122 2.235 1.674 3.066 3.46 2.821 6.162-.533 5.854-1.018 11.71-1.504 17.567-.458 5.528-.917 11.055-1.415 16.579-.774 8.576-1.616 17.145-2.458 25.715-.248 2.523-.496 5.047-.742 7.571-.231 2.371-.488 4.737-.757 7.216-.124 1.145-.251 2.313-.379 3.518-38.921-8.254-77.7-16.48-116.518-24.714L.434 102.994c-.02.228-.038.422-.055.596-.03.316-.055.562-.06.807-.028 1.965-.054 3.929-.08 5.893a1389.86 1389.86 0 0 1-.237 14.239c-.03 1.217.375 1.84 1.42 2.457 20.768 12.277 41.53 24.562 62.293 36.847 25.124 14.865 50.248 29.731 75.381 44.584 1.143.676 1.448 1.41 1.455 2.643.106 20.409.249 40.818.392 61.227l.033 4.688c.002.171-.001.345-.003.519-.009.553-.017 1.111.11 1.633.458 1.884.905 3.771 1.351 5.659 1.25 5.282 2.5 10.567 4.001 15.776 1.904 6.609 4.417 13.038 8.515 18.683Z" fill="url(#a)"/><defs><linearGradient id="a" x1="221" y1="0" x2="-10" y2="326" gradientUnits="userSpaceOnUse"><stop stop-color="#F4B832"/><stop offset=".614" stop-color="#F4B832" stop-opacity="0"/></linearGradient></defs></svg>